# xmcd CD database file
#
# Track frame offsets:
#	150
#	21181
#	45124
#	62960
#	84183
#	103917
#	116212
#	137678
#	158685
#	179887
#	201905
#	227227
#	246772
#	266425
#	290288
#	315087
#
# Disc length: 4371 seconds
#
# Revision: 4
# Processed by: cddbd v1.5.2PL0 Copyright (c) Steve Scherf et al.
# Submitted via: CDex 1.70beta3
#
DISCID=da111110
DTITLE=鈴木雅之 - Martini Blend
DYEAR=2003
DGENRE=New Age
TTITLE0=ランナウェイ-Brand New Soul Version-
TTITLE1=ガラス越しに消えた夏-Blend Mix 2003-
TTITLE2=Dry Dry-Blend Mix 2003-
TTITLE3=Guilty-1991 re-mix Version-
TTITLE4=Liberty-Blend Mix 2003-
TTITLE5=おやすみロージー〜Angel Babyへのオマージュ〜
TTITLE6=ロンリー・チャップリン
TTITLE7=別れの街
TTITLE8=FIRST LOVE
TTITLE9=もう涙はいらない-Blend Mix 2003-
TTITLE10=恋人-Blend Mix 2003-
TTITLE11=渋谷で5時
TTITLE12=夢で逢えたら(Solo Version)-Blend Mix 2003-
TTITLE13=きみがきみであるために-Blend Mix 2003-
TTITLE14=Dear Tears
TTITLE15=END OF THE ROAD
EXTD=YEAR: 2003
EXTT0=
EXTT1=
EXTT2=
EXTT3=
EXTT4=
EXTT5=
EXTT6=
EXTT7=
EXTT8=
EXTT9=
EXTT10=
EXTT11=
EXTT12=
EXTT13=
EXTT14=
EXTT15=
PLAYORDER=
